<?xml version="1.0" encoding="UTF-8" standalone="no"?>
<!DOCTYPE svg PUBLIC "-//W3C//DTD SVG 1.1//EN"
 "http://www.w3.org/Graphics/SVG/1.1/DTD/svg11.dtd">
<!-- Generated by graphviz version 9.0.0 (20230911.1827)
 -->
<!-- Title: memsim/graphs/paged0.json Pages: 1 -->
<svg width="267pt" height="271pt"
 viewBox="0.00 0.00 267.02 270.51" xmlns="http://www.w3.org/2000/svg" xmlns:xlink="http://www.w3.org/1999/xlink">
<g id="graph0" class="graph" transform="scale(1 1) rotate(0) translate(4 266.51)">
<title>memsim/graphs/paged0.json</title>
<polygon fill="white" stroke="none" points="-4,4 -4,-266.51 263.02,-266.51 263.02,4 -4,4"/>
<!-- p2 -->
<g id="node1" class="node">
<title>p2</title>
<text text-anchor="start" x="36.13" y="-126.23" font-family="Helvetica,sans-Serif" font-size="12.00" fill="#262626">p2</text>
<polygon fill="#262626" stroke="none" points="2.88,-92.88 2.88,-122.88 82.88,-122.88 82.88,-92.88 2.88,-92.88"/>
<polygon fill="none" stroke="grey" points="2.88,-92.88 2.88,-122.88 82.88,-122.88 82.88,-92.88 2.88,-92.88"/>
<text text-anchor="start" x="23" y="-108.43" font-family="Helvetica,sans-Serif" font-size="11.00">frame: 4</text>
<text text-anchor="start" x="27.5" y="-99.33" font-family="Helvetica,sans-Serif" font-size="9.00">page: 0</text>
<polygon fill="#262626" stroke="none" points="2.88,-62.88 2.88,-92.88 82.88,-92.88 82.88,-62.88 2.88,-62.88"/>
<polygon fill="none" stroke="grey" points="2.88,-62.88 2.88,-92.88 82.88,-92.88 82.88,-62.88 2.88,-62.88"/>
<text text-anchor="start" x="23" y="-78.43" font-family="Helvetica,sans-Serif" font-size="11.00">frame: 5</text>
<text text-anchor="start" x="27.5" y="-69.33" font-family="Helvetica,sans-Serif" font-size="9.00">page: 1</text>
<polygon fill="#262626" stroke="none" points="2.88,-32.88 2.88,-62.88 82.88,-62.88 82.88,-32.88 2.88,-32.88"/>
<polygon fill="none" stroke="grey" points="2.88,-32.88 2.88,-62.88 82.88,-62.88 82.88,-32.88 2.88,-32.88"/>
<text text-anchor="start" x="23" y="-48.43" font-family="Helvetica,sans-Serif" font-size="11.00">frame: 6</text>
<text text-anchor="start" x="27.5" y="-39.33" font-family="Helvetica,sans-Serif" font-size="9.00">page: 2</text>
<polygon fill="#262626" stroke="none" points="2.88,-2.88 2.88,-32.88 82.88,-32.88 82.88,-2.88 2.88,-2.88"/>
<polygon fill="none" stroke="grey" points="2.88,-2.88 2.88,-32.88 82.88,-32.88 82.88,-2.88 2.88,-2.88"/>
<text text-anchor="start" x="23" y="-18.43" font-family="Helvetica,sans-Serif" font-size="11.00">frame: 7</text>
<text text-anchor="start" x="27.5" y="-9.33" font-family="Helvetica,sans-Serif" font-size="9.00">page: 3</text>
</g>
<!-- physmem -->
<g id="node2" class="node">
<title>physmem</title>
<text text-anchor="start" x="162.64" y="-246.23" font-family="Helvetica,sans-Serif" font-size="12.00" fill="#262626">Physical Memory</text>
<polygon fill="#eed5b7" stroke="none" points="168.39,-212.88 168.39,-242.88 248.39,-242.88 248.39,-212.88 168.39,-212.88"/>
<polygon fill="none" stroke="grey" points="168.39,-212.88 168.39,-242.88 248.39,-242.88 248.39,-212.88 168.39,-212.88"/>
<text text-anchor="start" x="195.26" y="-228.43" font-family="Helvetica,sans-Serif" font-size="11.00">None</text>
<text text-anchor="start" x="196.39" y="-219.33" font-family="Helvetica,sans-Serif" font-size="9.00">FREE</text>
<polygon fill="gainsboro" stroke="none" points="168.39,-182.88 168.39,-212.88 248.39,-212.88 248.39,-182.88 168.39,-182.88"/>
<polygon fill="none" stroke="grey" points="168.39,-182.88 168.39,-212.88 248.39,-212.88 248.39,-182.88 168.39,-182.88"/>
<text text-anchor="start" x="195.26" y="-198.43" font-family="Helvetica,sans-Serif" font-size="11.00">None</text>
<text text-anchor="start" x="196.39" y="-189.33" font-family="Helvetica,sans-Serif" font-size="9.00">FREE</text>
<polygon fill="#eed5b7" stroke="none" points="168.39,-152.88 168.39,-182.88 248.39,-182.88 248.39,-152.88 168.39,-152.88"/>
<polygon fill="none" stroke="grey" points="168.39,-152.88 168.39,-182.88 248.39,-182.88 248.39,-152.88 168.39,-152.88"/>
<text text-anchor="start" x="195.26" y="-168.43" font-family="Helvetica,sans-Serif" font-size="11.00">None</text>
<text text-anchor="start" x="196.39" y="-159.33" font-family="Helvetica,sans-Serif" font-size="9.00">FREE</text>
<polygon fill="gainsboro" stroke="none" points="168.39,-122.88 168.39,-152.88 248.39,-152.88 248.39,-122.88 168.39,-122.88"/>
<polygon fill="none" stroke="grey" points="168.39,-122.88 168.39,-152.88 248.39,-152.88 248.39,-122.88 168.39,-122.88"/>
<text text-anchor="start" x="195.26" y="-138.43" font-family="Helvetica,sans-Serif" font-size="11.00">None</text>
<text text-anchor="start" x="196.39" y="-129.33" font-family="Helvetica,sans-Serif" font-size="9.00">FREE</text>
<polygon fill="#eed5b7" stroke="none" points="168.39,-92.88 168.39,-122.88 248.39,-122.88 248.39,-92.88 168.39,-92.88"/>
<polygon fill="none" stroke="grey" points="168.39,-92.88 168.39,-122.88 248.39,-122.88 248.39,-92.88 168.39,-92.88"/>
<text text-anchor="start" x="202.39" y="-108.43" font-family="Helvetica,sans-Serif" font-size="11.00">p2</text>
<text text-anchor="start" x="193.01" y="-99.33" font-family="Helvetica,sans-Serif" font-size="9.00">frame 4</text>
<polygon fill="gainsboro" stroke="none" points="168.39,-62.88 168.39,-92.88 248.39,-92.88 248.39,-62.88 168.39,-62.88"/>
<polygon fill="none" stroke="grey" points="168.39,-62.88 168.39,-92.88 248.39,-92.88 248.39,-62.88 168.39,-62.88"/>
<text text-anchor="start" x="202.39" y="-78.43" font-family="Helvetica,sans-Serif" font-size="11.00">p2</text>
<text text-anchor="start" x="193.01" y="-69.33" font-family="Helvetica,sans-Serif" font-size="9.00">frame 5</text>
<polygon fill="#eed5b7" stroke="none" points="168.39,-32.88 168.39,-62.88 248.39,-62.88 248.39,-32.88 168.39,-32.88"/>
<polygon fill="none" stroke="grey" points="168.39,-32.88 168.39,-62.88 248.39,-62.88 248.39,-32.88 168.39,-32.88"/>
<text text-anchor="start" x="202.39" y="-48.43" font-family="Helvetica,sans-Serif" font-size="11.00">p2</text>
<text text-anchor="start" x="193.01" y="-39.33" font-family="Helvetica,sans-Serif" font-size="9.00">frame 6</text>
<polygon fill="gainsboro" stroke="none" points="168.39,-2.88 168.39,-32.88 248.39,-32.88 248.39,-2.88 168.39,-2.88"/>
<polygon fill="none" stroke="grey" points="168.39,-2.88 168.39,-32.88 248.39,-32.88 248.39,-2.88 168.39,-2.88"/>
<text text-anchor="start" x="202.39" y="-18.43" font-family="Helvetica,sans-Serif" font-size="11.00">p2</text>
<text text-anchor="start" x="193.01" y="-9.33" font-family="Helvetica,sans-Serif" font-size="9.00">frame 7</text>
</g>
<!-- p2&#45;&gt;physmem -->
<g id="edge1" class="edge">
<title>p2:0&#45;&gt;physmem:4</title>
<path fill="none" stroke="#262626" d="M83.88,-108.25C119.11,-108.25 129.26,-108.25 161.94,-108.25"/>
<polygon fill="#262626" stroke="#262626" points="161.88,-109.66 165.88,-108.26 161.88,-106.86 161.88,-109.66"/>
</g>
<!-- p2&#45;&gt;physmem -->
<g id="edge2" class="edge">
<title>p2:1&#45;&gt;physmem:5</title>
<path fill="none" stroke="#262626" d="M83.88,-78.25C119.11,-78.25 129.26,-78.25 161.94,-78.25"/>
<polygon fill="#262626" stroke="#262626" points="161.88,-79.66 165.88,-78.26 161.88,-76.86 161.88,-79.66"/>
</g>
<!-- p2&#45;&gt;physmem -->
<g id="edge3" class="edge">
<title>p2:2&#45;&gt;physmem:6</title>
<path fill="none" stroke="#262626" d="M83.88,-48.25C119.11,-48.25 129.26,-48.25 161.94,-48.25"/>
<polygon fill="#262626" stroke="#262626" points="161.88,-49.66 165.88,-48.26 161.88,-46.86 161.88,-49.66"/>
</g>
<!-- p2&#45;&gt;physmem -->
<g id="edge4" class="edge">
<title>p2:3&#45;&gt;physmem:7</title>
<path fill="none" stroke="#262626" d="M83.88,-18.25C119.11,-18.25 129.26,-18.25 161.94,-18.25"/>
<polygon fill="#262626" stroke="#262626" points="161.88,-19.66 165.88,-18.26 161.88,-16.86 161.88,-19.66"/>
</g>
</g>
</svg>
