<?xml version="1.0" encoding="UTF-8" standalone="no"?>
<!DOCTYPE svg PUBLIC "-//W3C//DTD SVG 1.1//EN"
 "http://www.w3.org/Graphics/SVG/1.1/DTD/svg11.dtd">
<!-- Generated by graphviz version 9.0.0 (20230911.1827)
 -->
<!-- Title: memsim/diag/diagsample5 Pages: 1 -->
<svg width="794pt" height="810pt"
 viewBox="0.00 0.00 793.80 810.00" xmlns="http://www.w3.org/2000/svg" xmlns:xlink="http://www.w3.org/1999/xlink">
<g id="graph0" class="graph" transform="scale(1 1) rotate(0) translate(4 806)">
<title>memsim/diag/diagsample5</title>
<polygon fill="white" stroke="none" points="-4,4 -4,-806 789.8,-806 789.8,4 -4,4"/>
<g id="clust1" class="cluster">
<title>cluster_first</title>
<polygon fill="none" stroke="black" points="8,-473 8,-759 109.76,-759 109.76,-473 8,-473"/>
</g>
<g id="clust2" class="cluster">
<title>cluster_second</title>
<polygon fill="none" stroke="black" points="165.76,-183 165.76,-794 286.02,-794 286.02,-183 165.76,-183"/>
</g>
<g id="clust3" class="cluster">
<title>cluster_third</title>
<polygon fill="none" stroke="black" points="342.02,-369 342.02,-736 620.04,-736 620.04,-369 342.02,-369"/>
</g>
<g id="clust4" class="cluster">
<title>cluster_fourth</title>
<polygon fill="none" stroke="black" points="676.04,-8 676.04,-477 777.8,-477 777.8,-8 676.04,-8"/>
</g>
<!-- top -->
<g id="node1" class="node">
<title>top</title>
<text text-anchor="start" x="43.88" y="-734.98" font-family="Helvetica,sans-Serif" font-size="12.00" fill="#262626">inode</text>
<polygon fill="#b4eeb4" stroke="none" points="18.88,-681.62 18.88,-731.62 98.88,-731.62 98.88,-681.62 18.88,-681.62"/>
<polygon fill="none" stroke="grey" points="18.88,-681.62 18.88,-731.62 98.88,-731.62 98.88,-681.62 18.88,-681.62"/>
<text text-anchor="start" x="34.88" y="-716.17" font-family="Helvetica,sans-Serif" font-size="11.00">meta data</text>
<text text-anchor="start" x="30" y="-707.07" font-family="Helvetica,sans-Serif" font-size="9.00">names, sizes, </text>
<text text-anchor="start" x="29.25" y="-698.07" font-family="Helvetica,sans-Serif" font-size="9.00">owners, dates,</text>
<text text-anchor="start" x="50.63" y="-689.07" font-family="Helvetica,sans-Serif" font-size="9.00"> etc.</text>
<polygon fill="#e48f45" stroke="none" points="18.88,-663.62 18.88,-681.62 98.88,-681.62 98.88,-663.62 18.88,-663.62"/>
<polygon fill="none" stroke="grey" points="18.88,-663.62 18.88,-681.62 98.88,-681.62 98.88,-663.62 18.88,-663.62"/>
<text text-anchor="start" x="52.5" y="-668.17" font-family="Helvetica,sans-Serif" font-size="11.00">ptr</text>
<polygon fill="#e48f45" stroke="none" points="18.88,-645.62 18.88,-663.62 98.88,-663.62 98.88,-645.62 18.88,-645.62"/>
<polygon fill="none" stroke="grey" points="18.88,-645.62 18.88,-663.62 98.88,-663.62 98.88,-645.62 18.88,-645.62"/>
<text text-anchor="start" x="52.5" y="-650.17" font-family="Helvetica,sans-Serif" font-size="11.00">ptr</text>
<polygon fill="#e48f45" stroke="none" points="18.88,-627.62 18.88,-645.62 98.88,-645.62 98.88,-627.62 18.88,-627.62"/>
<polygon fill="none" stroke="grey" points="18.88,-627.62 18.88,-645.62 98.88,-645.62 98.88,-627.62 18.88,-627.62"/>
<text text-anchor="start" x="52.5" y="-632.17" font-family="Helvetica,sans-Serif" font-size="11.00">ptr</text>
<polygon fill="#e48f45" stroke="none" points="18.88,-609.62 18.88,-627.62 98.88,-627.62 98.88,-609.62 18.88,-609.62"/>
<polygon fill="none" stroke="grey" points="18.88,-609.62 18.88,-627.62 98.88,-627.62 98.88,-609.62 18.88,-609.62"/>
<text text-anchor="start" x="52.5" y="-614.17" font-family="Helvetica,sans-Serif" font-size="11.00">ptr</text>
<polygon fill="#e48f45" stroke="none" points="18.88,-591.62 18.88,-609.62 98.88,-609.62 98.88,-591.62 18.88,-591.62"/>
<polygon fill="none" stroke="grey" points="18.88,-591.62 18.88,-609.62 98.88,-609.62 98.88,-591.62 18.88,-591.62"/>
<text text-anchor="start" x="52.5" y="-596.17" font-family="Helvetica,sans-Serif" font-size="11.00">ptr</text>
<polygon fill="#e48f45" stroke="none" points="18.88,-573.62 18.88,-591.62 98.88,-591.62 98.88,-573.62 18.88,-573.62"/>
<polygon fill="none" stroke="grey" points="18.88,-573.62 18.88,-591.62 98.88,-591.62 98.88,-573.62 18.88,-573.62"/>
<text text-anchor="start" x="52.5" y="-578.17" font-family="Helvetica,sans-Serif" font-size="11.00">ptr</text>
<polygon fill="#e48f45" stroke="none" points="18.88,-555.62 18.88,-573.62 98.88,-573.62 98.88,-555.62 18.88,-555.62"/>
<polygon fill="none" stroke="grey" points="18.88,-555.62 18.88,-573.62 98.88,-573.62 98.88,-555.62 18.88,-555.62"/>
<text text-anchor="start" x="52.5" y="-560.17" font-family="Helvetica,sans-Serif" font-size="11.00">ptr</text>
<polygon fill="#e48f45" stroke="none" points="18.88,-537.62 18.88,-555.62 98.88,-555.62 98.88,-537.62 18.88,-537.62"/>
<polygon fill="none" stroke="grey" points="18.88,-537.62 18.88,-555.62 98.88,-555.62 98.88,-537.62 18.88,-537.62"/>
<text text-anchor="start" x="52.5" y="-542.17" font-family="Helvetica,sans-Serif" font-size="11.00">ptr</text>
<polygon fill="#f5cca0" stroke="none" points="18.88,-519.62 18.88,-537.62 98.88,-537.62 98.88,-519.62 18.88,-519.62"/>
<polygon fill="none" stroke="grey" points="18.88,-519.62 18.88,-537.62 98.88,-537.62 98.88,-519.62 18.88,-519.62"/>
<text text-anchor="start" x="35.63" y="-524.17" font-family="Helvetica,sans-Serif" font-size="11.00">to indirect</text>
<polygon fill="#e48f45" stroke="none" points="18.88,-501.62 18.88,-519.62 98.88,-519.62 98.88,-501.62 18.88,-501.62"/>
<polygon fill="none" stroke="grey" points="18.88,-501.62 18.88,-519.62 98.88,-519.62 98.88,-501.62 18.88,-501.62"/>
<text text-anchor="start" x="27" y="-506.18" font-family="Helvetica,sans-Serif" font-size="11.00">to dbl indirect</text>
<polygon fill="#f5cca0" stroke="none" points="18.88,-483.62 18.88,-501.62 98.88,-501.62 98.88,-483.62 18.88,-483.62"/>
<polygon fill="none" stroke="grey" points="18.88,-483.62 18.88,-501.62 98.88,-501.62 98.88,-483.62 18.88,-483.62"/>
<text text-anchor="start" x="26.63" y="-488.18" font-family="Helvetica,sans-Serif" font-size="11.00">to trpl indirect</text>
</g>
<!-- dbox0 -->
<g id="node2" class="node">
<title>dbox0</title>
<text text-anchor="start" x="178.64" y="-710.98" font-family="Helvetica,sans-Serif" font-size="12.00" fill="#262626">Dbl Indirect Ptrs 0</text>
<polygon fill="#da853b" stroke="none" points="185.89,-689.62 185.89,-707.62 265.89,-707.62 265.89,-689.62 185.89,-689.62"/>
<polygon fill="none" stroke="grey" points="185.89,-689.62 185.89,-707.62 265.89,-707.62 265.89,-689.62 185.89,-689.62"/>
<text text-anchor="start" x="224.01" y="-694.17" font-family="Helvetica,sans-Serif" font-size="11.00">&#45;</text>
<polygon fill="#e48f45" stroke="none" points="185.89,-671.62 185.89,-689.62 265.89,-689.62 265.89,-671.62 185.89,-671.62"/>
<polygon fill="none" stroke="grey" points="185.89,-671.62 185.89,-689.62 265.89,-689.62 265.89,-671.62 185.89,-671.62"/>
<text text-anchor="start" x="224.01" y="-676.17" font-family="Helvetica,sans-Serif" font-size="11.00">&#45;</text>
<polygon fill="#da853b" stroke="none" points="185.89,-653.62 185.89,-671.62 265.89,-671.62 265.89,-653.62 185.89,-653.62"/>
<polygon fill="none" stroke="grey" points="185.89,-653.62 185.89,-671.62 265.89,-671.62 265.89,-653.62 185.89,-653.62"/>
<text text-anchor="start" x="224.01" y="-658.17" font-family="Helvetica,sans-Serif" font-size="11.00">&#45;</text>
<polygon fill="#e48f45" stroke="none" points="185.89,-635.62 185.89,-653.62 265.89,-653.62 265.89,-635.62 185.89,-635.62"/>
<polygon fill="none" stroke="grey" points="185.89,-635.62 185.89,-653.62 265.89,-653.62 265.89,-635.62 185.89,-635.62"/>
<text text-anchor="start" x="224.01" y="-640.17" font-family="Helvetica,sans-Serif" font-size="11.00">&#45;</text>
<polygon fill="#da853b" stroke="none" points="185.89,-617.62 185.89,-635.62 265.89,-635.62 265.89,-617.62 185.89,-617.62"/>
<polygon fill="none" stroke="grey" points="185.89,-617.62 185.89,-635.62 265.89,-635.62 265.89,-617.62 185.89,-617.62"/>
<text text-anchor="start" x="224.01" y="-622.17" font-family="Helvetica,sans-Serif" font-size="11.00">&#45;</text>
<polygon fill="#e48f45" stroke="none" points="185.89,-599.62 185.89,-617.62 265.89,-617.62 265.89,-599.62 185.89,-599.62"/>
<polygon fill="none" stroke="grey" points="185.89,-599.62 185.89,-617.62 265.89,-617.62 265.89,-599.62 185.89,-599.62"/>
<text text-anchor="start" x="224.01" y="-604.17" font-family="Helvetica,sans-Serif" font-size="11.00">&#45;</text>
<polygon fill="#da853b" stroke="none" points="185.89,-581.62 185.89,-599.62 265.89,-599.62 265.89,-581.62 185.89,-581.62"/>
<polygon fill="none" stroke="grey" points="185.89,-581.62 185.89,-599.62 265.89,-599.62 265.89,-581.62 185.89,-581.62"/>
<text text-anchor="start" x="224.01" y="-586.17" font-family="Helvetica,sans-Serif" font-size="11.00">&#45;</text>
<polygon fill="#e48f45" stroke="none" points="185.89,-563.62 185.89,-581.62 265.89,-581.62 265.89,-563.62 185.89,-563.62"/>
<polygon fill="none" stroke="grey" points="185.89,-563.62 185.89,-581.62 265.89,-581.62 265.89,-563.62 185.89,-563.62"/>
<text text-anchor="start" x="224.01" y="-568.17" font-family="Helvetica,sans-Serif" font-size="11.00">&#45;</text>
</g>
<!-- top&#45;&gt;dbox0 -->
<g id="edge1" class="edge">
<title>top:c&#45;&gt;dbox0</title>
<path fill="none" stroke="green" d="M59.88,-511C59.88,-511 122.01,-561.08 170.02,-599.78"/>
<polygon fill="green" stroke="green" points="168.86,-600.64 172.86,-602.06 170.62,-598.46 168.86,-600.64"/>
</g>
<!-- tbox0 -->
<g id="node3" class="node">
<title>tbox0</title>
<text text-anchor="start" x="192.51" y="-525.98" font-family="Helvetica,sans-Serif" font-size="12.00" fill="#262626">Tripl Ind Ptrs</text>
<polygon fill="#da853b" stroke="none" points="185.89,-504.62 185.89,-522.62 265.89,-522.62 265.89,-504.62 185.89,-504.62"/>
<polygon fill="none" stroke="grey" points="185.89,-504.62 185.89,-522.62 265.89,-522.62 265.89,-504.62 185.89,-504.62"/>
<text text-anchor="start" x="224.01" y="-509.18" font-family="Helvetica,sans-Serif" font-size="11.00">&#45;</text>
<polygon fill="#e48f45" stroke="none" points="185.89,-486.62 185.89,-504.62 265.89,-504.62 265.89,-486.62 185.89,-486.62"/>
<polygon fill="none" stroke="grey" points="185.89,-486.62 185.89,-504.62 265.89,-504.62 265.89,-486.62 185.89,-486.62"/>
<text text-anchor="start" x="224.01" y="-491.18" font-family="Helvetica,sans-Serif" font-size="11.00">&#45;</text>
<polygon fill="#da853b" stroke="none" points="185.89,-468.62 185.89,-486.62 265.89,-486.62 265.89,-468.62 185.89,-468.62"/>
<polygon fill="none" stroke="grey" points="185.89,-468.62 185.89,-486.62 265.89,-486.62 265.89,-468.62 185.89,-468.62"/>
<text text-anchor="start" x="224.01" y="-473.18" font-family="Helvetica,sans-Serif" font-size="11.00">&#45;</text>
<polygon fill="#e48f45" stroke="none" points="185.89,-450.62 185.89,-468.62 265.89,-468.62 265.89,-450.62 185.89,-450.62"/>
<polygon fill="none" stroke="grey" points="185.89,-450.62 185.89,-468.62 265.89,-468.62 265.89,-450.62 185.89,-450.62"/>
<text text-anchor="start" x="224.01" y="-455.18" font-family="Helvetica,sans-Serif" font-size="11.00">&#45;</text>
<polygon fill="#da853b" stroke="none" points="185.89,-432.62 185.89,-450.62 265.89,-450.62 265.89,-432.62 185.89,-432.62"/>
<polygon fill="none" stroke="grey" points="185.89,-432.62 185.89,-450.62 265.89,-450.62 265.89,-432.62 185.89,-432.62"/>
<text text-anchor="start" x="224.01" y="-437.18" font-family="Helvetica,sans-Serif" font-size="11.00">&#45;</text>
<polygon fill="#e48f45" stroke="none" points="185.89,-414.62 185.89,-432.62 265.89,-432.62 265.89,-414.62 185.89,-414.62"/>
<polygon fill="none" stroke="grey" points="185.89,-414.62 185.89,-432.62 265.89,-432.62 265.89,-414.62 185.89,-414.62"/>
<text text-anchor="start" x="224.01" y="-419.18" font-family="Helvetica,sans-Serif" font-size="11.00">&#45;</text>
<polygon fill="#da853b" stroke="none" points="185.89,-396.62 185.89,-414.62 265.89,-414.62 265.89,-396.62 185.89,-396.62"/>
<polygon fill="none" stroke="grey" points="185.89,-396.62 185.89,-414.62 265.89,-414.62 265.89,-396.62 185.89,-396.62"/>
<text text-anchor="start" x="224.01" y="-401.18" font-family="Helvetica,sans-Serif" font-size="11.00">&#45;</text>
<polygon fill="#e48f45" stroke="none" points="185.89,-378.62 185.89,-396.62 265.89,-396.62 265.89,-378.62 185.89,-378.62"/>
<polygon fill="none" stroke="grey" points="185.89,-378.62 185.89,-396.62 265.89,-396.62 265.89,-378.62 185.89,-378.62"/>
<text text-anchor="start" x="224.01" y="-383.18" font-family="Helvetica,sans-Serif" font-size="11.00">&#45;</text>
</g>
<!-- top&#45;&gt;tbox0 -->
<g id="edge2" class="edge">
<title>top:c&#45;&gt;tbox0</title>
<path fill="none" stroke="orange" d="M59.88,-493C59.88,-493 129.22,-478.71 178,-468.66"/>
<polygon fill="orange" stroke="orange" points="178.13,-470.06 181.77,-467.89 177.57,-467.32 178.13,-470.06"/>
</g>
<!-- ibox1 -->
<g id="node6" class="node">
<title>ibox1</title>
<text text-anchor="start" x="200.76" y="-340.98" font-family="Helvetica,sans-Serif" font-size="12.00" fill="#262626">Ind Ptrs 1</text>
<polygon fill="#ebc296" stroke="none" points="185.89,-319.62 185.89,-337.62 265.89,-337.62 265.89,-319.62 185.89,-319.62"/>
<polygon fill="none" stroke="grey" points="185.89,-319.62 185.89,-337.62 265.89,-337.62 265.89,-319.62 185.89,-319.62"/>
<text text-anchor="start" x="224.01" y="-324.18" font-family="Helvetica,sans-Serif" font-size="11.00">&#45;</text>
<polygon fill="#f5cca0" stroke="none" points="185.89,-301.62 185.89,-319.62 265.89,-319.62 265.89,-301.62 185.89,-301.62"/>
<polygon fill="none" stroke="grey" points="185.89,-301.62 185.89,-319.62 265.89,-319.62 265.89,-301.62 185.89,-301.62"/>
<text text-anchor="start" x="224.01" y="-306.18" font-family="Helvetica,sans-Serif" font-size="11.00">&#45;</text>
<polygon fill="#ebc296" stroke="none" points="185.89,-283.62 185.89,-301.62 265.89,-301.62 265.89,-283.62 185.89,-283.62"/>
<polygon fill="none" stroke="grey" points="185.89,-283.62 185.89,-301.62 265.89,-301.62 265.89,-283.62 185.89,-283.62"/>
<text text-anchor="start" x="224.01" y="-288.18" font-family="Helvetica,sans-Serif" font-size="11.00">&#45;</text>
<polygon fill="#f5cca0" stroke="none" points="185.89,-265.62 185.89,-283.62 265.89,-283.62 265.89,-265.62 185.89,-265.62"/>
<polygon fill="none" stroke="grey" points="185.89,-265.62 185.89,-283.62 265.89,-283.62 265.89,-265.62 185.89,-265.62"/>
<text text-anchor="start" x="224.01" y="-270.18" font-family="Helvetica,sans-Serif" font-size="11.00">&#45;</text>
<polygon fill="#ebc296" stroke="none" points="185.89,-247.62 185.89,-265.62 265.89,-265.62 265.89,-247.62 185.89,-247.62"/>
<polygon fill="none" stroke="grey" points="185.89,-247.62 185.89,-265.62 265.89,-265.62 265.89,-247.62 185.89,-247.62"/>
<text text-anchor="start" x="224.01" y="-252.18" font-family="Helvetica,sans-Serif" font-size="11.00">&#45;</text>
<polygon fill="#f5cca0" stroke="none" points="185.89,-229.62 185.89,-247.62 265.89,-247.62 265.89,-229.62 185.89,-229.62"/>
<polygon fill="none" stroke="grey" points="185.89,-229.62 185.89,-247.62 265.89,-247.62 265.89,-229.62 185.89,-229.62"/>
<text text-anchor="start" x="224.01" y="-234.18" font-family="Helvetica,sans-Serif" font-size="11.00">&#45;</text>
<polygon fill="#ebc296" stroke="none" points="185.89,-211.62 185.89,-229.62 265.89,-229.62 265.89,-211.62 185.89,-211.62"/>
<polygon fill="none" stroke="grey" points="185.89,-211.62 185.89,-229.62 265.89,-229.62 265.89,-211.62 185.89,-211.62"/>
<text text-anchor="start" x="224.01" y="-216.18" font-family="Helvetica,sans-Serif" font-size="11.00">&#45;</text>
<polygon fill="#f5cca0" stroke="none" points="185.89,-193.62 185.89,-211.62 265.89,-211.62 265.89,-193.62 185.89,-193.62"/>
<polygon fill="none" stroke="grey" points="185.89,-193.62 185.89,-211.62 265.89,-211.62 265.89,-193.62 185.89,-193.62"/>
<text text-anchor="start" x="224.01" y="-198.18" font-family="Helvetica,sans-Serif" font-size="11.00">&#45;</text>
</g>
<!-- top&#45;&gt;ibox1 -->
<g id="edge5" class="edge">
<title>top:c&#45;&gt;ibox1</title>
<path fill="none" stroke="red" d="M59.88,-529C59.88,-529 131.28,-418.66 180.14,-343.15"/>
<polygon fill="red" stroke="red" points="181.22,-344.07 182.22,-339.95 178.87,-342.55 181.22,-344.07"/>
</g>
<!-- tiny0 -->
<g id="node12" class="node">
<title>tiny0</title>
<text text-anchor="start" x="208.26" y="-769.98" font-family="Helvetica,sans-Serif" font-size="12.00" fill="#262626">block0</text>
<polygon fill="#e48f45" stroke="none" points="185.89,-748.62 185.89,-766.62 265.89,-766.62 265.89,-748.62 185.89,-748.62"/>
<polygon fill="none" stroke="grey" points="185.89,-748.62 185.89,-766.62 265.89,-766.62 265.89,-748.62 185.89,-748.62"/>
<text text-anchor="start" x="215.39" y="-753.17" font-family="Helvetica,sans-Serif" font-size="11.00">data</text>
</g>
<!-- top&#45;&gt;tiny0 -->
<g id="edge10" class="edge">
<title>top:c&#45;&gt;tiny0</title>
<path fill="none" stroke="blue" d="M59.88,-655C59.88,-655 115.6,-704.46 165.76,-736 169.84,-738.56 174.17,-741.09 178.55,-743.53"/>
<polygon fill="blue" stroke="blue" points="177.81,-744.72 181.99,-745.41 179.15,-742.26 177.81,-744.72"/>
</g>
<!-- ibox0 -->
<g id="node7" class="node">
<title>ibox0</title>
<text text-anchor="start" x="377.02" y="-711.98" font-family="Helvetica,sans-Serif" font-size="12.00" fill="#262626">Ind Ptrs 0</text>
<polygon fill="#ebc296" stroke="none" points="362.15,-690.62 362.15,-708.62 442.15,-708.62 442.15,-690.62 362.15,-690.62"/>
<polygon fill="none" stroke="grey" points="362.15,-690.62 362.15,-708.62 442.15,-708.62 442.15,-690.62 362.15,-690.62"/>
<text text-anchor="start" x="400.27" y="-695.17" font-family="Helvetica,sans-Serif" font-size="11.00">&#45;</text>
<polygon fill="#f5cca0" stroke="none" points="362.15,-672.62 362.15,-690.62 442.15,-690.62 442.15,-672.62 362.15,-672.62"/>
<polygon fill="none" stroke="grey" points="362.15,-672.62 362.15,-690.62 442.15,-690.62 442.15,-672.62 362.15,-672.62"/>
<text text-anchor="start" x="400.27" y="-677.17" font-family="Helvetica,sans-Serif" font-size="11.00">&#45;</text>
<polygon fill="#ebc296" stroke="none" points="362.15,-654.62 362.15,-672.62 442.15,-672.62 442.15,-654.62 362.15,-654.62"/>
<polygon fill="none" stroke="grey" points="362.15,-654.62 362.15,-672.62 442.15,-672.62 442.15,-654.62 362.15,-654.62"/>
<text text-anchor="start" x="400.27" y="-659.17" font-family="Helvetica,sans-Serif" font-size="11.00">&#45;</text>
<polygon fill="#f5cca0" stroke="none" points="362.15,-636.62 362.15,-654.62 442.15,-654.62 442.15,-636.62 362.15,-636.62"/>
<polygon fill="none" stroke="grey" points="362.15,-636.62 362.15,-654.62 442.15,-654.62 442.15,-636.62 362.15,-636.62"/>
<text text-anchor="start" x="400.27" y="-641.17" font-family="Helvetica,sans-Serif" font-size="11.00">&#45;</text>
<polygon fill="#ebc296" stroke="none" points="362.15,-618.62 362.15,-636.62 442.15,-636.62 442.15,-618.62 362.15,-618.62"/>
<polygon fill="none" stroke="grey" points="362.15,-618.62 362.15,-636.62 442.15,-636.62 442.15,-618.62 362.15,-618.62"/>
<text text-anchor="start" x="400.27" y="-623.17" font-family="Helvetica,sans-Serif" font-size="11.00">&#45;</text>
<polygon fill="#f5cca0" stroke="none" points="362.15,-600.62 362.15,-618.62 442.15,-618.62 442.15,-600.62 362.15,-600.62"/>
<polygon fill="none" stroke="grey" points="362.15,-600.62 362.15,-618.62 442.15,-618.62 442.15,-600.62 362.15,-600.62"/>
<text text-anchor="start" x="400.27" y="-605.17" font-family="Helvetica,sans-Serif" font-size="11.00">&#45;</text>
<polygon fill="#ebc296" stroke="none" points="362.15,-582.62 362.15,-600.62 442.15,-600.62 442.15,-582.62 362.15,-582.62"/>
<polygon fill="none" stroke="grey" points="362.15,-582.62 362.15,-600.62 442.15,-600.62 442.15,-582.62 362.15,-582.62"/>
<text text-anchor="start" x="400.27" y="-587.17" font-family="Helvetica,sans-Serif" font-size="11.00">&#45;</text>
<polygon fill="#f5cca0" stroke="none" points="362.15,-564.62 362.15,-582.62 442.15,-582.62 442.15,-564.62 362.15,-564.62"/>
<polygon fill="none" stroke="grey" points="362.15,-564.62 362.15,-582.62 442.15,-582.62 442.15,-564.62 362.15,-564.62"/>
<text text-anchor="start" x="400.27" y="-569.17" font-family="Helvetica,sans-Serif" font-size="11.00">&#45;</text>
</g>
<!-- dbox0&#45;&gt;ibox0 -->
<g id="edge11" class="edge">
<title>dbox0:c&#45;&gt;ibox0</title>
<path fill="none" stroke="red" d="M226.89,-645C226.89,-645 302.57,-645 354.18,-645"/>
<polygon fill="red" stroke="red" points="353.9,-646.4 357.9,-645 353.9,-643.6 353.9,-646.4"/>
</g>
<!-- dbox1 -->
<g id="node4" class="node">
<title>dbox1</title>
<text text-anchor="start" x="354.9" y="-526.98" font-family="Helvetica,sans-Serif" font-size="12.00" fill="#262626">Dbl Indirect Ptrs 1</text>
<polygon fill="#da853b" stroke="none" points="362.15,-505.62 362.15,-523.62 442.15,-523.62 442.15,-505.62 362.15,-505.62"/>
<polygon fill="none" stroke="grey" points="362.15,-505.62 362.15,-523.62 442.15,-523.62 442.15,-505.62 362.15,-505.62"/>
<text text-anchor="start" x="400.27" y="-510.18" font-family="Helvetica,sans-Serif" font-size="11.00">&#45;</text>
<polygon fill="#e48f45" stroke="none" points="362.15,-487.62 362.15,-505.62 442.15,-505.62 442.15,-487.62 362.15,-487.62"/>
<polygon fill="none" stroke="grey" points="362.15,-487.62 362.15,-505.62 442.15,-505.62 442.15,-487.62 362.15,-487.62"/>
<text text-anchor="start" x="400.27" y="-492.18" font-family="Helvetica,sans-Serif" font-size="11.00">&#45;</text>
<polygon fill="#da853b" stroke="none" points="362.15,-469.62 362.15,-487.62 442.15,-487.62 442.15,-469.62 362.15,-469.62"/>
<polygon fill="none" stroke="grey" points="362.15,-469.62 362.15,-487.62 442.15,-487.62 442.15,-469.62 362.15,-469.62"/>
<text text-anchor="start" x="400.27" y="-474.18" font-family="Helvetica,sans-Serif" font-size="11.00">&#45;</text>
<polygon fill="#e48f45" stroke="none" points="362.15,-451.62 362.15,-469.62 442.15,-469.62 442.15,-451.62 362.15,-451.62"/>
<polygon fill="none" stroke="grey" points="362.15,-451.62 362.15,-469.62 442.15,-469.62 442.15,-451.62 362.15,-451.62"/>
<text text-anchor="start" x="400.27" y="-456.18" font-family="Helvetica,sans-Serif" font-size="11.00">&#45;</text>
<polygon fill="#da853b" stroke="none" points="362.15,-433.62 362.15,-451.62 442.15,-451.62 442.15,-433.62 362.15,-433.62"/>
<polygon fill="none" stroke="grey" points="362.15,-433.62 362.15,-451.62 442.15,-451.62 442.15,-433.62 362.15,-433.62"/>
<text text-anchor="start" x="400.27" y="-438.18" font-family="Helvetica,sans-Serif" font-size="11.00">&#45;</text>
<polygon fill="#e48f45" stroke="none" points="362.15,-415.62 362.15,-433.62 442.15,-433.62 442.15,-415.62 362.15,-415.62"/>
<polygon fill="none" stroke="grey" points="362.15,-415.62 362.15,-433.62 442.15,-433.62 442.15,-415.62 362.15,-415.62"/>
<text text-anchor="start" x="400.27" y="-420.18" font-family="Helvetica,sans-Serif" font-size="11.00">&#45;</text>
<polygon fill="#da853b" stroke="none" points="362.15,-397.62 362.15,-415.62 442.15,-415.62 442.15,-397.62 362.15,-397.62"/>
<polygon fill="none" stroke="grey" points="362.15,-397.62 362.15,-415.62 442.15,-415.62 442.15,-397.62 362.15,-397.62"/>
<text text-anchor="start" x="400.27" y="-402.18" font-family="Helvetica,sans-Serif" font-size="11.00">&#45;</text>
<polygon fill="#e48f45" stroke="none" points="362.15,-379.62 362.15,-397.62 442.15,-397.62 442.15,-379.62 362.15,-379.62"/>
<polygon fill="none" stroke="grey" points="362.15,-379.62 362.15,-397.62 442.15,-397.62 442.15,-379.62 362.15,-379.62"/>
<text text-anchor="start" x="400.27" y="-384.18" font-family="Helvetica,sans-Serif" font-size="11.00">&#45;</text>
</g>
<!-- tbox0&#45;&gt;dbox1 -->
<g id="edge4" class="edge">
<title>tbox0:c&#45;&gt;dbox1</title>
<path fill="none" stroke="green" d="M226.89,-460C226.89,-460 293.87,-460 344.78,-460"/>
<polygon fill="green" stroke="green" points="344.76,-461.4 348.76,-460 344.76,-458.6 344.76,-461.4"/>
</g>
<!-- ibox2 -->
<g id="node5" class="node">
<title>ibox2</title>
<text text-anchor="start" x="544.03" y="-566.98" font-family="Helvetica,sans-Serif" font-size="12.00" fill="#262626">Ind Ptrs 2</text>
<polygon fill="#ebc296" stroke="none" points="529.16,-545.62 529.16,-563.62 609.16,-563.62 609.16,-545.62 529.16,-545.62"/>
<polygon fill="none" stroke="grey" points="529.16,-545.62 529.16,-563.62 609.16,-563.62 609.16,-545.62 529.16,-545.62"/>
<text text-anchor="start" x="567.28" y="-550.17" font-family="Helvetica,sans-Serif" font-size="11.00">&#45;</text>
<polygon fill="#f5cca0" stroke="none" points="529.16,-527.62 529.16,-545.62 609.16,-545.62 609.16,-527.62 529.16,-527.62"/>
<polygon fill="none" stroke="grey" points="529.16,-527.62 529.16,-545.62 609.16,-545.62 609.16,-527.62 529.16,-527.62"/>
<text text-anchor="start" x="567.28" y="-532.17" font-family="Helvetica,sans-Serif" font-size="11.00">&#45;</text>
<polygon fill="#ebc296" stroke="none" points="529.16,-509.62 529.16,-527.62 609.16,-527.62 609.16,-509.62 529.16,-509.62"/>
<polygon fill="none" stroke="grey" points="529.16,-509.62 529.16,-527.62 609.16,-527.62 609.16,-509.62 529.16,-509.62"/>
<text text-anchor="start" x="567.28" y="-514.17" font-family="Helvetica,sans-Serif" font-size="11.00">&#45;</text>
<polygon fill="#f5cca0" stroke="none" points="529.16,-491.62 529.16,-509.62 609.16,-509.62 609.16,-491.62 529.16,-491.62"/>
<polygon fill="none" stroke="grey" points="529.16,-491.62 529.16,-509.62 609.16,-509.62 609.16,-491.62 529.16,-491.62"/>
<text text-anchor="start" x="567.28" y="-496.18" font-family="Helvetica,sans-Serif" font-size="11.00">&#45;</text>
<polygon fill="#ebc296" stroke="none" points="529.16,-473.62 529.16,-491.62 609.16,-491.62 609.16,-473.62 529.16,-473.62"/>
<polygon fill="none" stroke="grey" points="529.16,-473.62 529.16,-491.62 609.16,-491.62 609.16,-473.62 529.16,-473.62"/>
<text text-anchor="start" x="567.28" y="-478.18" font-family="Helvetica,sans-Serif" font-size="11.00">&#45;</text>
<polygon fill="#f5cca0" stroke="none" points="529.16,-455.62 529.16,-473.62 609.16,-473.62 609.16,-455.62 529.16,-455.62"/>
<polygon fill="none" stroke="grey" points="529.16,-455.62 529.16,-473.62 609.16,-473.62 609.16,-455.62 529.16,-455.62"/>
<text text-anchor="start" x="567.28" y="-460.18" font-family="Helvetica,sans-Serif" font-size="11.00">&#45;</text>
<polygon fill="#ebc296" stroke="none" points="529.16,-437.62 529.16,-455.62 609.16,-455.62 609.16,-437.62 529.16,-437.62"/>
<polygon fill="none" stroke="grey" points="529.16,-437.62 529.16,-455.62 609.16,-455.62 609.16,-437.62 529.16,-437.62"/>
<text text-anchor="start" x="567.28" y="-442.18" font-family="Helvetica,sans-Serif" font-size="11.00">&#45;</text>
<polygon fill="#f5cca0" stroke="none" points="529.16,-419.62 529.16,-437.62 609.16,-437.62 609.16,-419.62 529.16,-419.62"/>
<polygon fill="none" stroke="grey" points="529.16,-419.62 529.16,-437.62 609.16,-437.62 609.16,-419.62 529.16,-419.62"/>
<text text-anchor="start" x="567.28" y="-424.18" font-family="Helvetica,sans-Serif" font-size="11.00">&#45;</text>
</g>
<!-- dbox1&#45;&gt;ibox2 -->
<g id="edge3" class="edge">
<title>dbox1:c&#45;&gt;ibox2</title>
<path fill="none" stroke="red" d="M403.15,-497C403.15,-497 472.49,-498.26 521.27,-499.15"/>
<polygon fill="red" stroke="red" points="520.98,-500.54 525.01,-499.22 521.03,-497.74 520.98,-500.54"/>
</g>
<!-- tiny4 -->
<g id="node11" class="node">
<title>tiny4</title>
<text text-anchor="start" x="709.29" y="-452.98" font-family="Helvetica,sans-Serif" font-size="12.00" fill="#262626">block4</text>
<polygon fill="#e48f45" stroke="none" points="686.92,-431.62 686.92,-449.62 766.92,-449.62 766.92,-431.62 686.92,-431.62"/>
<polygon fill="none" stroke="grey" points="686.92,-431.62 686.92,-449.62 766.92,-449.62 766.92,-431.62 686.92,-431.62"/>
<text text-anchor="start" x="716.42" y="-436.18" font-family="Helvetica,sans-Serif" font-size="11.00">data</text>
</g>
<!-- ibox2&#45;&gt;tiny4 -->
<g id="edge9" class="edge">
<title>ibox2:c&#45;&gt;tiny4</title>
<path fill="none" stroke="blue" d="M570.16,-501C570.16,-501 633.1,-479.99 678.96,-464.68"/>
<polygon fill="blue" stroke="blue" points="679.39,-466.01 682.74,-463.41 678.51,-463.35 679.39,-466.01"/>
</g>
<!-- tiny1 -->
<g id="node9" class="node">
<title>tiny1</title>
<text text-anchor="start" x="709.29" y="-275.98" font-family="Helvetica,sans-Serif" font-size="12.00" fill="#262626">block1</text>
<polygon fill="#e48f45" stroke="none" points="686.92,-254.62 686.92,-272.62 766.92,-272.62 766.92,-254.62 686.92,-254.62"/>
<polygon fill="none" stroke="grey" points="686.92,-254.62 686.92,-272.62 766.92,-272.62 766.92,-254.62 686.92,-254.62"/>
<text text-anchor="start" x="716.42" y="-259.18" font-family="Helvetica,sans-Serif" font-size="11.00">data</text>
</g>
<!-- ibox1&#45;&gt;tiny1 -->
<g id="edge7" class="edge">
<title>ibox1:c&#45;&gt;tiny1</title>
<path fill="none" stroke="blue" d="M226.89,-275C226.89,-275 554.48,-273.03 678.82,-272.28"/>
<polygon fill="blue" stroke="blue" points="678.73,-273.68 682.72,-272.26 678.71,-270.88 678.73,-273.68"/>
</g>
<!-- tiny3 -->
<g id="node10" class="node">
<title>tiny3</title>
<text text-anchor="start" x="709.29" y="-334.98" font-family="Helvetica,sans-Serif" font-size="12.00" fill="#262626">block3</text>
<polygon fill="#e48f45" stroke="none" points="686.92,-313.62 686.92,-331.62 766.92,-331.62 766.92,-313.62 686.92,-313.62"/>
<polygon fill="none" stroke="grey" points="686.92,-313.62 686.92,-331.62 766.92,-331.62 766.92,-313.62 686.92,-313.62"/>
<text text-anchor="start" x="716.42" y="-318.18" font-family="Helvetica,sans-Serif" font-size="11.00">data</text>
</g>
<!-- ibox1&#45;&gt;tiny3 -->
<g id="edge8" class="edge">
<title>ibox1:c&#45;&gt;tiny3</title>
<path fill="none" stroke="blue" d="M226.89,-293C226.89,-293 554.48,-317.95 678.82,-327.41"/>
<polygon fill="blue" stroke="blue" points="678.63,-328.8 682.72,-327.71 678.84,-326.01 678.63,-328.8"/>
</g>
<!-- tiny2 -->
<g id="node8" class="node">
<title>tiny2</title>
<text text-anchor="start" x="709.29" y="-393.98" font-family="Helvetica,sans-Serif" font-size="12.00" fill="#262626">block2</text>
<polygon fill="#e48f45" stroke="none" points="686.92,-372.62 686.92,-390.62 766.92,-390.62 766.92,-372.62 686.92,-372.62"/>
<polygon fill="none" stroke="grey" points="686.92,-372.62 686.92,-390.62 766.92,-390.62 766.92,-372.62 686.92,-372.62"/>
<text text-anchor="start" x="716.42" y="-377.18" font-family="Helvetica,sans-Serif" font-size="11.00">data</text>
</g>
<!-- ibox0&#45;&gt;tiny2 -->
<g id="edge6" class="edge">
<title>ibox0:c&#45;&gt;tiny2</title>
<path fill="none" stroke="blue" d="M403.15,-628C403.15,-628 433.77,-587.17 454.28,-552 490.33,-490.19 467.16,-448.32 526.28,-408 571.08,-377.44 635.32,-377.42 678.72,-382.08"/>
<polygon fill="blue" stroke="blue" points="678.54,-383.47 682.67,-382.53 678.86,-380.68 678.54,-383.47"/>
</g>
<!-- tiny5 -->
<g id="node13" class="node">
<title>tiny5</title>
<text text-anchor="start" x="709.29" y="-216.97" font-family="Helvetica,sans-Serif" font-size="12.00" fill="#262626">block5</text>
<polygon fill="#e48f45" stroke="none" points="686.92,-195.62 686.92,-213.62 766.92,-213.62 766.92,-195.62 686.92,-195.62"/>
<polygon fill="none" stroke="grey" points="686.92,-195.62 686.92,-213.62 766.92,-213.62 766.92,-195.62 686.92,-195.62"/>
<text text-anchor="start" x="716.42" y="-200.18" font-family="Helvetica,sans-Serif" font-size="11.00">data</text>
</g>
<!-- tiny6 -->
<g id="node14" class="node">
<title>tiny6</title>
<text text-anchor="start" x="709.29" y="-157.97" font-family="Helvetica,sans-Serif" font-size="12.00" fill="#262626">block6</text>
<polygon fill="#e48f45" stroke="none" points="686.92,-136.62 686.92,-154.62 766.92,-154.62 766.92,-136.62 686.92,-136.62"/>
<polygon fill="none" stroke="grey" points="686.92,-136.62 686.92,-154.62 766.92,-154.62 766.92,-136.62 686.92,-136.62"/>
<text text-anchor="start" x="716.42" y="-141.18" font-family="Helvetica,sans-Serif" font-size="11.00">data</text>
</g>
<!-- tiny7 -->
<g id="node15" class="node">
<title>tiny7</title>
<text text-anchor="start" x="709.29" y="-98.97" font-family="Helvetica,sans-Serif" font-size="12.00" fill="#262626">block7</text>
<polygon fill="#e48f45" stroke="none" points="686.92,-77.62 686.92,-95.62 766.92,-95.62 766.92,-77.62 686.92,-77.62"/>
<polygon fill="none" stroke="grey" points="686.92,-77.62 686.92,-95.62 766.92,-95.62 766.92,-77.62 686.92,-77.62"/>
<text text-anchor="start" x="716.42" y="-82.17" font-family="Helvetica,sans-Serif" font-size="11.00">data</text>
</g>
<!-- tiny8 -->
<g id="node16" class="node">
<title>tiny8</title>
<text text-anchor="start" x="709.29" y="-39.98" font-family="Helvetica,sans-Serif" font-size="12.00" fill="#262626">block8</text>
<polygon fill="#e48f45" stroke="none" points="686.92,-18.62 686.92,-36.62 766.92,-36.62 766.92,-18.62 686.92,-18.62"/>
<polygon fill="none" stroke="grey" points="686.92,-18.62 686.92,-36.62 766.92,-36.62 766.92,-18.62 686.92,-18.62"/>
<text text-anchor="start" x="716.42" y="-23.18" font-family="Helvetica,sans-Serif" font-size="11.00">data</text>
</g>
</g>
</svg>
